PLOT

Trapped in an isolated gas station by a voracious Splinter parasite that transforms its still
living victims into deadly hosts, a young couple and an escaped convict must find a way to work
together to survive this primal terror.
 
http://www.imdb.com/title/tt1031280/

Encoded By .......: BigPerm1828
Runtime ..........: 1h 21mn
File Size ........: 868 MiB
Resolution .......: 704x396
IMDb URL .........: http://www.imdb.com/title/tt1031280/
Language .........: English
Video
ID : 0
Format : MPEG-4 Visual
Format profile : Advanced Simple@L5
Format settings, BVOP : Yes
Format settings, QPel : No
Format settings, GMC : No warppoints
Format settings, Matrix : Default (H.263)
Codec ID : XVID
Codec ID/Hint : XviD
Duration : 1h 21mn
Bit rate : 1 028 Kbps
Width : 704 pixels
Height : 396 pixels
Display aspect ratio : 16:9
Frame rate : 23.976 fps
Color space : YUV
Chroma subsampling : 4:2:0
Bit depth : 8 bits
Scan type : Progressive
Compression mode : Lossy
Bits/(Pixel*Frame) : 0.154
Stream size : 603 MiB (69%)
Writing library : XviD 1.2.1 (UTC 2008-12-04)

Audio
ID : 1
Format : AC-3
Format/Info : Audio Coding 3
Mode extension : CM (complete main)
Codec ID : 2000
Duration : 1h 21mn
Bit rate mode : Constant
Bit rate : 448 Kbps
Channel(s) : 6 channels
Channel positions : Front: L C R, Side: L R, LFE
Sampling rate : 48.0 KHz
Bit depth : 16 bits
Compression mode : Lossy
Video delay : 42ms
Stream size : 263 MiB (30%)
Alignment : Split accross interleaves
Interleave, duration : 500 ms (11.99 video frames)
Interleave, preload duration : 500 ms
 
http://leetleech.org/images/58216575535787611108.png
 
http://leetleech.org/images/66536481683933028145.png
 
http://leetleech.org/images/22382279619229325605.png
 
http://leetleech.org/images/48810392844486207876.png

